<svg xmlns="http://www.w3.org/2000/svg" viewBox="0 0 400 300" width="406" height="306" class="illustration styles_illustrationTablet__1DWOa"><g id="_559_finance_app_outline" data-name="#559_finance_app_outline"><path d="M154,245.12l5-37.23-2.16-62.24s-39.35,20.71-42.12,35.19c-3.08,16.12-5.17,49.46-6,64.28Z" fill="#ffc9b0"></path><path d="M154,246.12H108.72a1,1,0,0,1-.72-.31,1,1,0,0,1-.28-.74c.77-13.94,2.89-48.1,6-64.42,2.82-14.78,41-35,42.63-35.89a1,1,0,0,1,1.47.85L160,207.85a.91.91,0,0,1,0,.17l-5,37.23A1,1,0,0,1,154,246.12Zm-44.17-2h43.3L158,207.84l-2.11-60.55c-7,3.85-37.83,21.41-40.18,33.73C112.67,196.83,110.59,229.63,109.78,244.12Z" fill="#093f68"></path><rect x="145.03" y="59.21" width="103.52" height="172.88" rx="15.34" fill="#8763CB"></rect><path d="M233.21,233.09H160.37A16.36,16.36,0,0,1,144,216.75V74.55a16.36,16.36,0,0,1,16.34-16.34h72.84a16.36,16.36,0,0,1,16.34,16.34v142.2A16.36,16.36,0,0,1,233.21,233.09ZM160.37,60.21A14.35,14.35,0,0,0,146,74.55v142.2a14.36,14.36,0,0,0,14.34,14.34h72.84a14.37,14.37,0,0,0,14.34-14.34V74.55a14.36,14.36,0,0,0-14.34-14.34Z" fill="#093f68"></path><rect x="151.96" y="78.36" width="89.65" height="132.46" fill="#fff"></rect><path d="M241.61,211.82H152a1,1,0,0,1-1-1V78.36a1,1,0,0,1,1-1h89.65a1,1,0,0,1,1,1V210.82A1,1,0,0,1,241.61,211.82Zm-88.65-2h87.65V79.36H153Z" fill="#093f68"></path><path d="M191.47,69.69H187.1a1,1,0,0,1,0-2h4.37a1,1,0,0,1,0,2Z" fill="#093f68"></path><path d="M206.48,69.69H195.72a1,1,0,1,1,0-2h10.76a1,1,0,0,1,0,2Z" fill="#093f68"></path><circle cx="196.79" cy="221.71" r="2.43" fill="#093f68"></circle><rect x="151.96" y="78.36" width="89.65" height="16.82" fill="#093f68"></rect><path d="M241.61,96.18H152a1,1,0,0,1-1-1V78.36a1,1,0,0,1,1-1h89.65a1,1,0,0,1,1,1V95.18A1,1,0,0,1,241.61,96.18Zm-88.65-2h87.65V79.36H153Z" fill="#093f68"></path><path d="M230.76,195.51H162.81a1,1,0,0,1,0-2h67.95a1,1,0,0,1,0,2Z" fill="#093f68"></path><rect x="169.68" y="171.79" width="12.39" height="22.54" fill="#f56132"></rect><path d="M182.07,195.33H169.68a1,1,0,0,1-1-1V171.79a1,1,0,0,1,1-1h12.39a1,1,0,0,1,1,1v22.54A1,1,0,0,1,182.07,195.33Zm-11.39-2h10.39V172.79H170.68Z" fill="#093f68"></path><rect x="190.59" y="161.36" width="12.39" height="32.97" fill="#ffbc0e"></rect><path d="M203,195.33H190.59a1,1,0,0,1-1-1v-33a1,1,0,0,1,1-1H203a1,1,0,0,1,1,1v33A1,1,0,0,1,203,195.33Zm-11.39-2H202v-31H191.59Z" fill="#093f68"></path><rect x="211.5" y="146.45" width="12.39" height="47.89" fill="#70cc40"></rect><path d="M223.89,195.33H211.5a1,1,0,0,1-1-1V146.45a1,1,0,0,1,1-1h12.39a1,1,0,0,1,1,1v47.88A1,1,0,0,1,223.89,195.33Zm-11.39-2h10.39V147.45H212.5Z" fill="#093f68"></path><circle cx="182.8" cy="122.95" r="19.99" fill="#fff"></circle><path d="M182.8,143.94a21,21,0,1,1,21-21A21,21,0,0,1,182.8,143.94Zm0-40a19,19,0,1,0,19,19A19,19,0,0,0,182.8,104Z" fill="#093f68"></path><path d="M182.8,123h20a20,20,0,1,1-8.87-16.62Z" fill="#70cc40"></path><path d="M182.8,143.94a21,21,0,1,1,11.67-38.44,1,1,0,0,1,.28,1.39L184.67,122h18.12a1,1,0,0,1,1,1A21,21,0,0,1,182.8,143.94Zm0-40a19,19,0,1,0,19,20h-19a1,1,0,0,1-.88-.53,1,1,0,0,1,.05-1l10.54-15.77A18.89,18.89,0,0,0,182.8,104Z" fill="#093f68"></path><path d="M229.65,107.28H211.5a1,1,0,0,1,0-2h18.15a1,1,0,0,1,0,2Z" fill="#093f68"></path><path d="M229.65,115.62h-14a1,1,0,1,1,0-2h14a1,1,0,0,1,0,2Z" fill="#093f68"></path><path d="M229.65,124H211.5a1,1,0,0,1,0-2h18.15a1,1,0,0,1,0,2Z" fill="#093f68"></path><path d="M241.24,233.37l2.85,11.75h47.19c-3.45-7.74-8.73-19.46-9.82-21-1.64-2.38-1-33.52-7.07-44.11-3.26-5.36-9.33-7.18-15.32-6.65-1.81.16-18,4.18-18.47,2.19q-2.52-10.14-6-20a27.73,27.73,0,0,0-4.23-8.54c-1.88-2.28-5.2-4-7.72-2.47s-2.54,5.22-2.19,8.21c2,17.36,7.24,34.52,13,51,0,0-8.71-5.64-13-7.15s-8,2.6-5.14,11.41S241.24,233.37,241.24,233.37Z" fill="#ffc9b0"></path><path d="M291.28,246.12H244.09a1,1,0,0,1-1-.76L240.35,234c-2.84-2.08-23.12-17.13-25.94-25.7-1.7-5.16-1.38-9.39.89-11.62a5.17,5.17,0,0,1,5.53-1c3,1,7.88,3.92,10.81,5.72-5-14.45-10.14-31.27-12.14-48.52-.35-3-.45-7.28,2.67-9.18s6.79,0,9,2.7a28,28,0,0,1,4.4,8.84c2.26,6.49,4.25,13.16,5.92,19.83,1.79.52,10.58-1.3,14-2,2-.41,3-.62,3.52-.67,7.2-.64,13.12,2,16.27,7.14,4.11,7.16,5.22,23.24,6,33.88.32,4.64.66,9.43,1.08,10.19,1.09,1.57,6,12.39,9.9,21.18a1,1,0,0,1-.07,1A1,1,0,0,1,291.28,246.12Zm-46.4-2h44.86c-5.06-11.32-8.36-18.39-9.1-19.47s-.94-4.15-1.42-11.17c-.73-10.46-1.82-26.26-5.7-33-2.72-4.47-8-6.73-14.36-6.15-.38,0-1.73.31-3.3.63-12.42,2.57-15.75,2.74-16.24.8-1.66-6.7-3.65-13.41-5.93-19.93a26.27,26.27,0,0,0-4.06-8.23c-1.63-2-4.44-3.46-6.42-2.26-1.63,1-2.18,3.29-1.72,7.24,2.1,18.14,7.74,35.85,13,50.78a1,1,0,0,1-1.49,1.18c-.09-.06-8.66-5.59-12.81-7.05a3.23,3.23,0,0,0-3.47.59c-1.68,1.64-1.82,5.22-.39,9.57,2.76,8.4,25.29,24.75,25.51,24.92a1,1,0,0,1,.39.57Z" fill="#093f68"></path><path d="M114.55,204.37s-.25-20.87,23.64-35.89c20.5-12.89,21.54-5.34,20.46-.17-1.34,6.37-16.41,18.33-16.41,18.33s9.44,9.71-2.32,25" fill="#ffc9b0"></path><path d="M139.92,212.68a1,1,0,0,1-.79-1.6c11.06-14.42,2.75-23.37,2.39-23.74a1,1,0,0,1-.27-.76,1,1,0,0,1,.37-.72c4.11-3.27,15-12.82,16-17.76.31-1.51.62-4.19-.86-5.22s-5.58-1.42-18.08,6.44c-12.08,7.59-17.74,16.71-20.36,23a34.18,34.18,0,0,0-2.83,12,1,1,0,0,1-1,1h0a1,1,0,0,1-1-1c0-.88,0-21.6,24.12-36.75,10.42-6.55,17.06-8.64,20.29-6.39,1.83,1.27,2.41,3.78,1.67,7.27-1.22,5.86-12.8,15.68-16,18.28,2,2.79,7.24,12.24-2.93,25.5A1,1,0,0,1,139.92,212.68Z" fill="#093f68"></path><path d="M172.5,162.36a1,1,0,0,1-.46-1.89l54.77-27.73a1,1,0,0,1,.9,1.79L173,162.25A.93.93,0,0,1,172.5,162.36Z" fill="#dfeaef"></path><path d="M225.2,140.19a1.06,1.06,0,0,1-.45-.11,1,1,0,0,1-.44-1.35l2.66-5.22-6.49-.62a1,1,0,0,1,.19-2l8,.76a1,1,0,0,1,.8,1.44l-3.32,6.54A1,1,0,0,1,225.2,140.19Z" fill="#dfeaef"></path><path d="M262.69,54.88H225.76a3.17,3.17,0,0,0-3.18,3.17V87.52a3.18,3.18,0,0,0,3.18,3.18H227v7.41l7.62-7.41h28.06a3.18,3.18,0,0,0,3.18-3.18V58.05A3.17,3.17,0,0,0,262.69,54.88Z" fill="#fff"></path><path d="M227,99.11a.91.91,0,0,1-.39-.08,1,1,0,0,1-.61-.92V91.7h-.25a4.18,4.18,0,0,1-4.18-4.17V58.05a4.18,4.18,0,0,1,4.18-4.17h36.93a4.18,4.18,0,0,1,4.18,4.17V87.53a4.18,4.18,0,0,1-4.18,4.17H235l-7.32,7.13A1,1,0,0,1,227,99.11Zm-1.25-43.23a2.18,2.18,0,0,0-2.18,2.17V87.53a2.18,2.18,0,0,0,2.18,2.17H227a1,1,0,0,1,1,1v5L233.93,90a1,1,0,0,1,.7-.28h28.06a2.18,2.18,0,0,0,2.18-2.17V58.05a2.18,2.18,0,0,0-2.18-2.17Z" fill="#093f68"></path><path d="M243,84.05V82.27c-.65-.18-1.28-.31-1.88-.52a5.52,5.52,0,0,1-2.91-2.18,5.32,5.32,0,0,1-.83-3h3.48A2.76,2.76,0,0,0,243,79.13V74.41c-.7-.21-1.39-.4-2.08-.62a4.73,4.73,0,0,1-2-1.15,4,4,0,0,1-1.12-2.19,5.53,5.53,0,0,1,.22-3,5,5,0,0,1,3.05-3,17.45,17.45,0,0,1,1.76-.45l.21,0V61.53h3.26v.22c0,.68,0,1.36,0,2,0,.17.05.22.21.25a6.83,6.83,0,0,1,3,1.42,4.88,4.88,0,0,1,1.73,3c.06.32.08.65.13,1H247.8a2.48,2.48,0,0,0-1.53-2.25v4.41c.12,0,.25.07.38.09a12.87,12.87,0,0,1,2.78.89,4,4,0,0,1,2.4,3.36,5.25,5.25,0,0,1-.91,3.84,5.38,5.38,0,0,1-2.63,2c-.65.22-1.33.37-2,.57v1.72Zm3.27-9v4.1a2.87,2.87,0,0,0,1.44-.64,1.79,1.79,0,0,0-.08-2.84A11.39,11.39,0,0,0,246.26,75.09ZM243,70.88v-4a13,13,0,0,0-1.24.64,1.71,1.71,0,0,0,.11,2.86C242.2,70.59,242.58,70.72,243,70.88Z" fill="#093f68"></path></g></svg>